<svg id="kim" data-name="kim_" xmlns="http://www.w3.org/2000/svg" width="330.51832" height="495.14582" viewBox="0 0 330.51832 495.14582">
    <title>kim</title>
    <path d="M56.11091,264.813c-8.06588,2.8724-8.54473,11.75853-8.60936,19.14478a140.4019,140.4019,0,0,0,5.73539,41.01456A149.7996,149.7996,0,0,0,68.755,360.2796c4.49317,7.38429,10.84717,15.26109,20.42713,13.52312,1.89676-.3441,1.09318-3.23584-.79752-2.89284-9.70831,1.76125-15.62907-9.41931-19.55345-16.51739a151.008,151.008,0,0,1-12.70141-30.21763A135.41575,135.41575,0,0,1,50.5935,291.309c-.2813-6.94453-1.9921-20.64489,6.31493-23.60317,1.8059-.64311,1.02772-3.54284-.79752-2.89284Z" transform="translate(-47.49612 -9.51498)" />
    <path d="M91.44188,372.95078q11.00656,29.64186,19.90294,59.99581c.54183,1.8488,3.43782,1.062,2.89284-.79752q-8.89277-30.34309-19.90294-59.99581c-.6662-1.79414-3.56694-1.01792-2.89284.79752Z" transform="translate(-47.49612 -9.51498)" />
    <path d="M112.36565,433.357a495.1854,495.1854,0,0,0,45.33166,35.64817c14.94774,10.36433,30.97822,19.8989,48.76,24.40936a87.39668,87.39668,0,0,0,50.91425-2.42735c16.82947-6.06166,30.12325-17.64268,43.20758-29.445,15.87989-14.324,31.64994-28.84739,44.32153-46.18226,1.14063-1.5604-1.46129-3.05881-2.59041-1.51416-10.7288,14.67711-23.79123,27.33144-37.18841,39.54144-12.91493,11.7705-25.82448,24.516-41.86163,31.96149a84.14225,84.14225,0,0,1-51.81867,6.13568C194.2811,487.98828,178.6789,479.455,164.23264,469.831a466.72683,466.72683,0,0,1-49.74567-38.5953c-1.443-1.27287-3.57268.84109-2.12132,2.12132Z" transform="translate(-47.49612 -9.51498)" />
    <path d="M344.61466,413.6023l4.33257-31.98379c1.21074-8.9379,2.75248-17.96247.05411-26.77792-.56345-1.84077-3.46014-1.05583-2.89284.79752,2.89083,9.4442.72854,19.40525-.56382,28.94568l-3.82286,28.221c-.25573,1.88788,2.63447,2.70485,2.89284.79752Z" transform="translate(-47.49612 -9.51498)" />
    <path d="M349.49946,359.09315c1.07031-6.6669,5.74866-11.34359,9.14515-16.89914a66.38812,66.38812,0,0,0,6.88332-16.90263c3.885-13.89548,6.91929-28.07209,10.32473-42.092,1.93864-7.98123,5.72161-23.09365-5.95621-25.89866-8.85075-2.12595-12.97439,9.18765-19.51987,12.581-1.7146.8889-.19919,3.47866,1.51416,2.59041,5.94058-3.07978,13.58215-18.23282,20.86783-9.8334,4.52227,5.21358,1.8681,12.90087.42917,18.8248L368.85745,299.291c-2.56495,10.55967-4.57395,21.50289-8.27192,31.74093a62.27242,62.27242,0,0,1-8.1719,14.9755c-2.70981,3.82952-5.05365,7.5956-5.807,12.28822-.30321,1.88869,2.58714,2.70167,2.89284.79752Z" transform="translate(-47.49612 -9.51498)" />
    <path d="M350.45129,277.019q1.59534-9.09522,2.50548-18.27987c.19062-1.91969-2.8107-1.90647-3,0q-.87267,8.78865-2.39832,17.48235c-.33118,1.88808,2.55936,2.69871,2.89284.79752Z" transform="translate(-47.49612 -9.51498)" />
    <path d="M83.40127,172.14251c-5.26752,34.75891-2.68708,69.84719.07645,104.706.15156,1.91175,3.15285,1.92805,3,0-2.73975-34.55887-5.4066-69.44344-.18361-103.90849.28622-1.88867-2.60406-2.70307-2.89284-.79752Z" transform="translate(-47.49612 -9.51498)" />
    <path d="M340.47369,254.988q1.70968,8.35725,3.23989,16.74883c.34579,1.89653,3.23755,1.0931,2.89284-.79752q-1.53008-8.392-3.23989-16.74883c-.38667-1.89012-3.279-1.09017-2.89284.79752Z" transform="translate(-47.49612 -9.51498)" />
    <path d="M318.32209,155.27315c-1.57138,12.94923,2.70464,25.13747,6.40284,37.35311,3.99854,13.20768,7.54668,26.55133,10.77257,39.96754.45115,1.8763,3.34472,1.08183,2.89284-.79752q-4.62029-19.2154-10.23381-38.172c-3.74342-12.54783-8.45029-25.03543-6.83444-38.35117.23206-1.91229-2.77-1.89551-3,0Z" transform="translate(-47.49612 -9.51498)" />
    <path d="M188.82381,265.16773c-12.54772-4.87845-27.16005-12.35428-40.9632-11.25181-6.38589.51-12.33813,2.91827-18.26073,5.19022q-10.71763,4.11136-21.43351,8.2273c-1.78408.68482-1.00943,3.58644.79752,2.89284l19.64738-7.54169c6.01507-2.3089,12.11135-5.01418,18.58008-5.67623,13.62434-1.3944,28.42286,6.22649,40.83493,11.0522,1.80041.7,2.58044-2.19965.79752-2.89284Z" transform="translate(-47.49612 -9.51498)" />
    <path d="M258.59968,269.92171l25.35767-9.18235c8.1454-2.94956,17.86808-8.24,26.6984-6.25884,1.88051.42191,2.68354-2.46969.79752-2.89284-8.57529-1.92394-16.75756,2.08154-24.67091,4.94707l-28.9802,10.49412c-1.80132.65228-1.02392,3.55241.79752,2.89284Z" transform="translate(-47.49612 -9.51498)" />
    <path d="M120.888,451.72455a224.36913,224.36913,0,0,0,1.237,50.40336c.26055,1.9042,3.15159,1.09352,2.89284-.79752a221.04519,221.04519,0,0,1-1.12982-49.60585c.17091-1.92256-2.83011-1.911-3,0Z" transform="translate(-47.49612 -9.51498)" />
    <path d="M329.52864,436.48794a200.18824,200.18824,0,0,0-.344,56.6759c.25929,1.90426,3.15032,1.09347,2.89284-.79752a195.106,195.106,0,0,1,.344-55.08086c.28088-1.8886-2.60938-2.70345-2.89284-.79752Z" transform="translate(-47.49612 -9.51498)" />
    <path d="M175.9687,412.26267c16.38512,3.90273,32.49491-1.16865,48.86922-2.29351,16.362-1.124,32.8473,2.17457,48.92478-2.22659a1.50128,1.50128,0,0,0-.79752-2.89284c-15.79637,4.3242-32.04795,1.01483-48.12726,2.11943-16.05628,1.103-32.01337,6.22556-48.0717,2.40067-1.87688-.447-2.67782,2.445-.79752,2.89284Z" transform="translate(-47.49612 -9.51498)" />
    <path d="M182.36409,422.52523c21.86643,6.73658,45.29409,13.24558,67.3824,3.7301,1.76813-.7617.24193-3.34692-1.51416-2.59041-21.21941,9.14117-44.13834,2.41629-65.07072-4.03253-1.84924-.56971-2.64,2.32521-.79752,2.89284Z" transform="translate(-47.49612 -9.51498)" />
    <path d="M194.53762,401.4838l42.40786-4.7535c1.8972-.21266,1.9188-3.21508,0-3l-42.40786,4.7535c-1.8972.21266-1.9188,3.21508,0,3Z" transform="translate(-47.49612 -9.51498)" />
    <path d="M212.19317,368.78631c-4.864-3.00486-24.90448-14.87406-25.32383-1.44114-.06028,1.93107,2.93978,1.92907,3,0,.26548-8.50388,18.17159,2.40181,20.80968,4.03155,1.64709,1.01753,3.15542-1.57649,1.51416-2.59041Z" transform="translate(-47.49612 -9.51498)" />
    <path d="M234.11374,367.36768c3.52691-.46123,20.58668-4.81576,21.56092.83547.32735,1.89884,3.2189,1.09384,2.89284-.79752-.62668-3.63518-3.6354-5.17231-7.11855-5.20481-5.67646-.053-11.71027,1.43126-17.33521,2.16686-1.88721.2468-1.91178,3.25,0,3Z" transform="translate(-47.49612 -9.51498)" />
    <path d="M240.43973,340.04712a227.04258,227.04258,0,0,0-7.06277-40.66967,1.50128,1.50128,0,0,0-2.89284.79752,222.57771,222.57771,0,0,1,6.9556,39.87215c.156,1.91084,3.15732,1.92753,3,0Z" transform="translate(-47.49612 -9.51498)" />
    <path d="M181.76259,284.272c-9.13134-1.62654-16.95167-7.31715-26.148-8.63348a31.57356,31.57356,0,0,0-23.33117,6.17c-1.53037,1.14051-.03628,3.74588,1.51416,2.59041a28.67411,28.67411,0,0,1,25.129-4.991c7.5612,2.1054,14.24229,6.36824,22.03849,7.757,1.88789.33628,2.69809-2.55429.79752-2.89284Z" transform="translate(-47.49612 -9.51498)" />
    <path d="M130.13181,282.52335c13.314,18.6909,37.72887,10.33406,54.8,2.76484,1.76137-.781.2368-3.36678-1.51416-2.59041-15.32433,6.79471-38.50141,15.43-50.69541-1.68858-1.11077-1.55936-3.71369-.06275-2.59041,1.51416Z" transform="translate(-47.49612 -9.51498)" />
    <path d="M268.98754,285.22869c6.61477-11.01039,30.3248-18.48035,37.68468-4.63044.90632,1.70553,3.49685.19159,2.59041-1.51416-8.50663-16.00787-35.122-8.25878-42.86551,4.63044a1.50112,1.50112,0,0,0,2.59041,1.51416Z" transform="translate(-47.49612 -9.51498)" />
    <path d="M267.49344,288.08954c13.52168,3.96372,29.698,7.62512,40.87338-3.57019a1.50086,1.50086,0,0,0-2.12132-2.12132c-10.33809,10.3565-25.55815,6.43253-37.95454,2.79868-1.85639-.54418-2.64925,2.35-.79752,2.89284Z" transform="translate(-47.49612 -9.51498)" />
    <path d="M295.97722,274.283a16.44044,16.44044,0,0,1,.86089,12.36549c-.57942,1.84632,2.31579,2.63627,2.89284.79752a19.56946,19.56946,0,0,0-1.16331-14.67716c-.84573-1.7352-3.43374-.21612-2.59041,1.51416Z" transform="translate(-47.49612 -9.51498)" />
    <path d="M276.57125,276.88875a11.42615,11.42615,0,0,0,1.42357,10.122c1.08765,1.58027,3.68879.0817,2.59041-1.51416a8.55368,8.55368,0,0,1-1.12115-7.81036c.61032-1.83629-2.28588-2.62369-2.89284-.79752Z" transform="translate(-47.49612 -9.51498)" />
    <path d="M165.60885,282.71553l-.072-.16579.20479.75708c.111,1.6062-.52809.58028-.81136.55325q-.3335-.34852-.26568-.00462l-.0241.17805a6.60119,6.60119,0,0,0-.42291,1.41381,3.60742,3.60742,0,0,0,.38492,3.0449,1.54575,1.54575,0,0,0,2.05228.53813,1.51041,1.51041,0,0,0,.53813-2.05228c-.46478-.64327.374-2.06763.44613-2.83568a2.873,2.873,0,0,0-1.23008-2.8065,2.62593,2.62593,0,0,0-2.68112.11839,2.09343,2.09343,0,0,0-.70938,2.77542,1.51147,1.51147,0,0,0,2.05228.53813,1.53659,1.53659,0,0,0,.53813-2.05228Z" transform="translate(-47.49612 -9.51498)" />
    <path d="M86.42088,331.47678C89.5163,310.697,74.655,294.8746,58.71637,284.055c-1.60158-1.0872-3.10427,1.511-1.51416,2.59041,14.65222,9.94638,29.20023,24.73786,26.32583,44.03386-.28133,1.88861,2.60893,2.70342,2.89284.79752Z" transform="translate(-47.49612 -9.51498)" />
    <path d="M351.19583,309.95052a51.4016,51.4016,0,0,1,12.84407-33.00175c1.26909-1.4457-.84464-3.57567-2.12132-2.12132a54.65456,54.65456,0,0,0-13.72275,35.12307c-.04487,1.93125,2.95515,1.93057,3,0Z" transform="translate(-47.49612 -9.51498)" />
    <path d="M200.30958,56.2219a1.5009,1.5009,0,0,0,0-3,1.5009,1.5009,0,0,0,0,3Z" transform="translate(-47.49612 -9.51498)" />
    <path d="M199.75625,53.78329c-24.356-3.40918-47.60116,5.80151-67.80929,18.74447C121.738,79.06641,112.05968,86.44948,102.47349,93.859c-9.56881,7.39611-18.69139,15.2963-25.39317,25.47147-1.065,1.617,1.53176,3.12148,2.59041,1.51416,6.23322-9.46376,14.69753-16.89828,23.57086-23.81565,9.32543-7.26981,18.7938-14.45574,28.69705-20.925,19.808-12.93943,42.89391-22.80492,67.0201-19.4279,1.8882.2643,2.70445-2.62592.79752-2.89284Z" transform="translate(-47.49612 -9.51498)" />
    <path d="M68.63912,135.15282,66.496,150.60767c-.26182,1.88811,2.62839,2.70457,2.89284.79752L71.532,135.95034c.26182-1.88811-2.62839-2.70457-2.89284-.79752Z" transform="translate(-47.49612 -9.51498)" />
    <path d="M80.66172,265.05255a109.02,109.02,0,0,1-4.01021-63.61309c.44641-1.877-2.4456-2.678-2.89284-.79752a111.88586,111.88586,0,0,0,4.01021,65.20812c.67015,1.79205,3.57107,1.01617,2.89284-.79752Z" transform="translate(-47.49612 -9.51498)" />
    <path d="M68.80858,235.87a455.89722,455.89722,0,0,1-3.46275-60.94052,1.5009,1.5009,0,0,0-3,0A455.89722,455.89722,0,0,0,65.80858,235.87c.23512,1.89078,3.238,1.91433,3,0Z" transform="translate(-47.49612 -9.51498)" />
    <path d="M78.02208,202.53266a190.293,190.293,0,0,1-1.45868-65.887c.2892-1.88869-2.60109-2.70285-2.89284-.79752a194.59433,194.59433,0,0,0,1.45868,67.482c.37506,1.89212,3.26721,1.09118,2.89284-.79752Z" transform="translate(-47.49612 -9.51498)" />
    <path d="M96.04538,150.29443A157.99859,157.99859,0,0,1,112.665,86.09233c.8624-1.72141-1.72459-3.24241-2.59041-1.51416a161.69384,161.69384,0,0,0-17.02918,65.71626c-.08195,1.93041,2.91822,1.92654,3,0Z" transform="translate(-47.49612 -9.51498)" />
    <path d="M106.38821,144.0951q7.25945-18.0345,16.11731-35.3573C127.79228,98.44158,133.097,85.46895,142.803,78.55859c1.55967-1.11044.063-3.71333-1.51416-2.59041-9.83934,7.0053-15.106,19.17741-20.516,29.59425-6.381,12.28633-12.10828,24.89362-17.27741,37.73516-.72076,1.79057,2.1798,2.5689,2.89284.79752Z" transform="translate(-47.49612 -9.51498)" />
    <path d="M135.40634,128.177a173.18731,173.18731,0,0,1,31.376-74.97457c1.143-1.5584-1.45906-3.05661-2.59041-1.51416a175.0689,175.0689,0,0,0-31.6784,75.6912c-.30455,1.88868,2.58582,2.70155,2.89284.79752Z" transform="translate(-47.49612 -9.51498)" />
    <path d="M156.16615,125.40063c.79414-13.35637,5.50621-25.82468,10.61059-38.05589C172.02256,74.7746,177.36,62.242,182.6534,49.69182c.74913-1.77613-2.15278-2.55214-2.89284-.79752C174.23019,62.00638,168.62119,75.08838,163.18,88.23771c-4.94748,11.9562-9.24,24.14769-10.01384,37.16291-.11466,1.92848,2.88573,1.9218,3,0Z" transform="translate(-47.49612 -9.51498)" />
    <path d="M185.18609,127.55752a229.8883,229.8883,0,0,1,.97793-55.347c.26423-1.88819-2.626-2.70445-2.89284-.79752a232.96507,232.96507,0,0,0-1.0851,56.14455c.19473,1.9019,3.19678,1.922,3,0Z" transform="translate(-47.49612 -9.51498)" />
    <path d="M216.47332,125.88733a433.60832,433.60832,0,0,0-.063-60.46092c-.13574-1.91484-3.1368-1.92977-3,0a433.60832,433.60832,0,0,1,.063,60.46092c-.13257,1.927,2.868,1.91873,3,0Z" transform="translate(-47.49612 -9.51498)" />
    <path d="M247.68579,126.73467q-14.82156-25.62359-27.36747-52.4487c-.81721-1.7474-3.40419-.2259-2.59041,1.51416q12.54013,26.814,27.36747,52.4487a1.50112,1.50112,0,0,0,2.59041-1.51416Z" transform="translate(-47.49612 -9.51498)" />
    <path d="M262.83852,125.84279q-15.89966-32.17921-33.736-63.339a1.50112,1.50112,0,0,0-2.59041,1.51416q17.83131,31.15037,33.736,63.339c.85523,1.73089,3.44361.21262,2.59041-1.51416Z" transform="translate(-47.49612 -9.51498)" />
    <path d="M293.54283,132.5805c-5.6114-12.7597-11.59808-25.02-21.27661-35.23714C263.1,87.66714,252.08742,79.98472,241.20258,72.395c-1.58721-1.10672-3.08834,1.49278-1.51416,2.59041,10.684,7.44966,21.4601,14.98229,30.45647,24.47927,9.50532,10.03424,15.30323,22.11383,20.80752,34.63.77548,1.76335,3.36111.23832,2.59041-1.51416Z" transform="translate(-47.49612 -9.51498)" />
    <path d="M323.82622,138.38044c-15.68231-21.22619-29.86078-50.89456-59.77371-53.02611-1.9265-.13728-1.91787,2.86334,0,3,28.54066,2.03376,42.26284,31.34525,57.1833,51.54027,1.13487,1.53606,3.73976.0415,2.59041-1.51416Z" transform="translate(-47.49612 -9.51498)" />
    <path d="M348.62337,258.89177c1.66475-12.42728,4.43984-25.263,3.62508-37.84582a72.29142,72.29142,0,0,0-8.84883-29.97988c-.92485-1.69538-3.51624-.183-2.59041,1.51416a68.59,68.59,0,0,1,8.57453,31.8767c.16546,11.47143-2.24168,23.09787-3.76037,34.43484-.2555,1.90727,2.747,1.88848,3,0Z" transform="translate(-47.49612 -9.51498)" />
    <path d="M342.43,200.61852c3.876-14.48125,1.30055-29.64949-2.01679-43.99448-2.87465-12.4307-8.06149-24.95379-19.91992-31.18885-1.7074-.89774-3.22549,1.69061-1.51416,2.59041,11.76274,6.18475,16.244,18.88038,18.92681,31.12668,2.9241,13.34755,5.22861,27.22853,1.63122,40.66871a1.50128,1.50128,0,0,0,2.89284.79752Z" transform="translate(-47.49612 -9.51498)" />
    <path d="M339.76967,203.71881l-12.80786-51.384c-.46668-1.87227-3.3606-1.07912-2.89284.79752l12.80786,51.384c.46668,1.87227,3.3606,1.07912,2.89284-.79752Z" transform="translate(-47.49612 -9.51498)" />
    <path d="M341.00971,222.10748a141.10918,141.10918,0,0,1-10.32087-19.8525c-.74969-1.77212-3.33458-.2449-2.59041,1.51416a141.10917,141.10917,0,0,0,10.32087,19.8525c1.021,1.63355,3.61767.12934,2.59041-1.51416Z" transform="translate(-47.49612 -9.51498)" />
    <path d="M330.99088,129.17868c-5.50726-1.83733-8.22015-6.98553-10.87811-11.75148A133.41647,133.41647,0,0,0,312.42,105.11974,129.4321,129.4321,0,0,0,245.65883,56.5778c-1.84534-.58261-2.635,2.3127-.79752,2.89284A126.899,126.899,0,0,1,296.19954,90.5655a124.21009,124.21009,0,0,1,18.275,23.11075c4.23389,6.92079,7.37628,15.612,15.71886,18.39526,1.83558.61239,2.62281-2.28388.79752-2.89284Z" transform="translate(-47.49612 -9.51498)" />
    <path d="M292.40353,89.65019c-12.02286-.87539-23.67166-8.83237-34.27738-14.06459l-32.55122-16.0588c-1.7255-.85126-3.24741,1.73533-1.51416,2.59041L260.131,79.9121c10.14353,5.00421,20.74045,11.89844,32.27249,12.73809,1.9262.14025,1.91731-2.8604,0-3Z" transform="translate(-47.49612 -9.51498)" />
    <path d="M238.8547,62.5839a143.68745,143.68745,0,0,0-32.04184-5.6843c-1.92794-.12157-1.92065,2.87889,0,3a140.01637,140.01637,0,0,1,31.24432,5.57714c1.85433.5518,2.64657-2.34261.79752-2.89284Z" transform="translate(-47.49612 -9.51498)" />
    <path d="M183.2883,48.15337c-1.99534-8.3439-4.36578-18.36884,1.04343-26.01948,5.66576-8.01349,18.12572-7.34865,26.77383-6.96439,4.547.202,10.17771.107,14.4492,1.7453,4.58124,1.75715,5.73565,9.80868,6.5748,14.11945,1.77111,9.09831.33024,20.79165-9.85171,24.19492-1.8219.609-1.04082,3.50729.79752,2.89284,9.62021-3.21551,13.483-13.33338,12.694-22.83141a54.46439,54.46439,0,0,0-1.848-9.66875c-.74991-2.7732-1.28642-6.22949-2.92423-8.65277-2.54453-3.76486-8.22259-3.67467-12.25976-4.16434-10.32165-1.25192-25.88831-2.86128-34.34842,4.78367-8.90446,8.04648-6.44838,21.09655-3.99341,31.36247.44883,1.87688,3.34235,1.08221,2.89284-.79752Z" transform="translate(-47.49612 -9.51498)" />
    <path d="M182.04438,40.43158q18.42509-14.984,38.25177-28.07347C221.9,11.29841,220.399,8.69927,218.782,9.7677q-20.13359,13.303-38.85894,28.54256c-1.49842,1.21858.63534,3.32978,2.12132,2.12132Z" transform="translate(-47.49612 -9.51498)" />
    <path d="M182.09272,54.31151l38.709-24.13047c1.63491-1.01917.13054-3.61568-1.51416-2.59041l-38.709,24.13047c-1.63491,1.01917-.13054,3.61568,1.51416,2.59041Z" transform="translate(-47.49612 -9.51498)" />
    <path d="M199.71229,59.3061a285.63626,285.63626,0,0,1,28.90144-18.675,1.50113,1.50113,0,0,0-1.51416-2.59041,285.63625,285.63625,0,0,0-28.90144,18.675c-1.53936,1.13156-.04451,3.73617,1.51416,2.59041Z" transform="translate(-47.49612 -9.51498)" />
    <path d="M94.41893,376.70752c.56928,5.73869.96586,11.30758,2.43717,16.88678l4.55624,17.27724a1.52082,1.52082,0,0,0,2.74162.35832l3.85227-5.12784-2.79521-.75708,2.38109,25.11125a1.508,1.508,0,0,0,2.94642.39876l3.56808-8.81312-2.94642-.39876a62.78151,62.78151,0,0,0,3.41462,17.28169c.45259,1.29654,2.56108,1.55094,2.89284,0l2.17487-3.35077-2.2035-.89645,3.36974,13.01551a1.51441,1.51441,0,0,0,2.89284,0l2.75609-7.02429-2.74162.35832,6.39208,10.77071a1.51775,1.51775,0,0,0,2.74162-.35832l3.2563-11.843h-2.89284l4.65556,14.384a1.51379,1.51379,0,0,0,2.89284,0,46.51878,46.51878,0,0,1,5.60161-11.159l-2.74162-.35832,6.50211,20.27584c.425,1.3254,2.56945,1.52622,2.89284,0l1.40762-6.64316-2.74162.35832,6.32821,13.75133a1.51386,1.51386,0,0,0,2.74162-.35832l1.57161-10.63082-2.74162.35832,8.06562,18.12571a1.51093,1.51093,0,0,0,2.59041,0,17.81291,17.81291,0,0,0,2.50648-9.31591l-2.79521.75708,9.08321,13.48341c.66239.98328,2.47122.99591,2.74162-.35832a28.80755,28.80755,0,0,0-.21594-12.63042l-2.74162,1.15584,13.37331,21.4861c.61858.99383,2.52488.98958,2.74162-.35832a34.8026,34.8026,0,0,1,2.97345-9.69066h-2.59041a200.84854,200.84854,0,0,1,13.30143,21.69607c.6684,1.26317,2.28895.73712,2.74162-.35832l7.63425-18.47419-2.74162.35832,8.9,18.34208a1.51456,1.51456,0,0,0,2.74162-.35832l3.72-18.08009-2.74162.35832a68.07991,68.07991,0,0,1,5.45088,12.4226,1.508,1.508,0,0,0,2.94642-.39876,19.05732,19.05732,0,0,1,.72884-3.6725q3.26412-5.64115,5.50255-1.54236a1.51538,1.51538,0,0,0,2.74162.35832,33.25868,33.25868,0,0,0,3.65686-15.42647l-2.79521.75708,7.24643,13.67423c.73352,1.38417,2.7219.65033,2.79521-.75708.25052-4.80956,6.876-6.36583,9.66511-2.8a1.511,1.511,0,0,0,2.50708-.6619A71.20481,71.20481,0,0,0,272.047,470.474l-2.94642.39876a24.01559,24.01559,0,0,0,4.76322,8.3617,1.51678,1.51678,0,0,0,2.35587-.30358,63.68988,63.68988,0,0,0,7.9445-16.27784l-2.50708.6619c9.43621,8.51673,20.0544-1.05311,26.06655-8.61347l-2.35587-.30358,5.19246,10.63056c.71674,1.46739,2.66466.57561,2.79521-.75708l3.53059-36.04321-2.79521.75708,4.42772,9.41488a1.515,1.515,0,0,0,2.74162-.35832c.73114-2.87713,5.40948-3.28612,6.34627-.22045.3375,1.10448,2.2058,1.62168,2.74162.35832.81761-1.92774,4.15035-8.57616,7.07809-4.08423.62788.96334,2.53381,1.01279,2.74162-.35832q6.48674-42.79859,12.97347-85.59718c.28625-1.88867-2.604-2.70307-2.89284-.79752q-6.48673,42.79859-12.97347,85.59718l2.74162-.35832c-4.05228-6.21728-10.24-.67592-12.25891,4.08423l2.74162.35832c-1.7512-5.73081-10.63632-5.66506-12.13194.22045l2.74162-.35832-4.42772-9.41488c-.698-1.48411-2.666-.5617-2.79521.75708L310.3554,464.2714l2.79521-.75708-5.19246-10.63056a1.50672,1.50672,0,0,0-2.35587-.30358c-4.78948,6.02283-13.72857,15.92-21.82391,8.61347a1.51943,1.51943,0,0,0-2.50708.6619,60.94808,60.94808,0,0,1-7.64208,15.5612l2.35587-.30358a19.60878,19.60878,0,0,1-3.99171-7.0379,1.50729,1.50729,0,0,0-2.94642.39876,67.964,67.964,0,0,1-2.62336,16.39473l2.50708-.6619c-4.537-5.80042-14.41573-2.19534-14.78643,4.92135l2.79521-.75708L249.693,476.69689a1.51145,1.51145,0,0,0-2.79521.75708,29.65837,29.65837,0,0,1-3.24728,13.91231l2.74162.35832c-.694-3.0624-3.82461-4.46583-6.78981-3.55857-4.05725,1.24139-4.84872,5.94754-5.33441,9.571l2.94642-.39876a72.07609,72.07609,0,0,0-5.75331-13.13924,1.51626,1.51626,0,0,0-2.74162.35832l-3.72,18.08009,2.74162-.35832-8.9-18.34208c-.63-1.29831-2.30173-.70618-2.74162.35832l-7.63425,18.47419,2.74162-.35832a200.84855,200.84855,0,0,0-13.30143-21.69607,1.5166,1.5166,0,0,0-2.59041,0,37.69541,37.69541,0,0,0-3.27588,10.4073l2.74162-.35832L181.40738,469.278a1.507,1.507,0,0,0-2.74162,1.15584,24.70716,24.70716,0,0,1,.21594,11.03538l2.74162-.35832-9.08321-13.48341a1.51273,1.51273,0,0,0-2.79521.75708,14.874,14.874,0,0,1-2.09689,7.80175h2.59041L162.1728,458.0606a1.51359,1.51359,0,0,0-2.74162.35832l-1.57161,10.63082,2.74162-.35832L154.273,454.94009a1.51425,1.51425,0,0,0-2.74162.35832l-1.40762,6.64316h2.89284l-6.50211-20.27584a1.52064,1.52064,0,0,0-2.74162-.35832,49.85537,49.85537,0,0,0-5.904,11.87561h2.89284l-4.65556-14.384a1.513,1.513,0,0,0-2.89284,0l-3.2563,11.843,2.74162-.35832-6.39208-10.77071a1.52062,1.52062,0,0,0-2.74162.35832l-2.75609,7.02429h2.89284L120.33187,433.88a1.51147,1.51147,0,0,0-2.2035-.89645,7.44781,7.44781,0,0,0-3.55355,5.14366h2.89284a59.91723,59.91723,0,0,1-3.30746-16.48417,1.5079,1.5079,0,0,0-2.94642-.39876l-3.56808,8.81312,2.94642.39876L108.211,405.34494a1.51491,1.51491,0,0,0-2.79521-.75708l-3.85227,5.12784,2.74162.35832c-2.94013-11.14895-5.74567-21.86869-6.88625-33.3665-.18881-1.90338-3.19075-1.92291-3,0Z" transform="translate(-47.49612 -9.51498)" />
    <path d="M86.11082,305.31987a43.07358,43.07358,0,0,0,1.65493,12.52481c.76912,2.60147,1.944,4.974,2.13237,7.73392.15477,2.26729-.3187,4.57891-.39137,6.84418a46.30756,46.30756,0,0,0,1.3692,12.73783c1.212,4.8186,4.25411,9.73676,2.38173,14.761-.67506,1.81144,2.22353,2.59351,2.89284.79752,1.36984-3.67579.61939-7.01462-.59063-10.66719A50.68473,50.68473,0,0,1,92.482,334.201c-.0253-4.13846.93426-8.253-.18247-12.32062-1.553-5.65687-3.21857-10.58451-3.18868-16.56047a1.5009,1.5009,0,0,0-3,0Z" transform="translate(-47.49612 -9.51498)" />
</svg>
